<?xml version="1.0" encoding="utf-8"?>
<!DOCTYPE svg PUBLIC "-//W3C//DTD SVG 1.1//EN" "http://www.w3.org/Graphics/SVG/1.1/DTD/svg11.dtd">
<svg version="1.1" xmlns="http://www.w3.org/2000/svg" width="1028" height="1024" viewBox="0 0 1028 1024">
    <path fill="rgb(76,99,139)" d="M504.246 74.885c241.688 0 437.619 195.931 437.619 436.611 0 241.688-195.931 437.619-437.619 437.619-240.681 0-436.611-195.931-436.611-437.619 0-240.681 195.931-436.611 436.611-436.611z"></path>
    <path fill="rgb(217,218,219)" d="M504.246 184.542c180.208 0 327.962 146.545 327.962 327.962 0 180.208-147.754 327.962-327.962 327.962-181.417 0-327.962-147.754-327.962-327.962 0-181.417 146.545-327.962 327.962-327.962z"></path>
    <path fill="rgb(76,99,139)" d="M504.045 397.204c63.899 0 115.301 51.402 115.301 114.091 0 63.899-51.402 115.301-115.301 115.301-62.69 0-114.091-51.402-114.091-115.301 0-62.69 51.402-114.091 114.091-114.091z"></path>
    <path fill="rgb(76,99,139)" d="M504.045 322.218c105.222 0 190.488 83.855 190.488 189.077s-85.266 190.488-190.488 190.488c-105.222 0-189.077-85.266-189.077-190.488s83.855-189.077 189.077-189.077z"></path>
    <path fill="rgb(255,255,255)" d="M504.246 448.807c34.671 0 63.698 28.019 63.698 63.899 0 34.671-29.027 63.698-63.698 63.698-35.88 0-63.899-29.027-63.899-63.698 0-35.88 28.019-63.899 63.899-63.899z"></path>
    <path fill="rgb(76,99,139)" d="M956.374 355.88l-224.958 156.624c-94.136 64.907-210.444 43.742-283.213-43.54l400.731-278.778c45.959 46.967 82.847 103.005 107.439 165.695z"></path>
    <path fill="rgb(255,255,255)" d="M956.374 321.209l-224.958 156.624c-94.136 64.907-210.444 43.742-283.213-43.54l400.731-278.778c45.959 46.967 82.847 103.005 107.439 165.695z"></path>
</svg>
