<?xml version="1.0" standalone="no"?>
<!DOCTYPE svg PUBLIC "-//W3C//DTD SVG 20010904//EN"
 "http://www.w3.org/TR/2001/REC-SVG-20010904/DTD/svg10.dtd">
<svg version="1.0" xmlns="http://www.w3.org/2000/svg"
 width="700.000000pt" height="700.000000pt" viewBox="0 0 700.000000 700.000000"
 preserveAspectRatio="xMidYMid meet">
<metadata>
Created by potrace 1.11, written by Peter Selinger 2001-2013
</metadata>
<g transform="translate(0.000000,700.000000) scale(0.100000,-0.100000)"
fill="#000000" stroke="none">
<path d="M3489 6246 c-2 -2 -72 -6 -156 -10 -83 -3 -158 -8 -165 -10 -7 -3
-33 -7 -58 -10 -325 -37 -754 -188 -1025 -360 -16 -11 -55 -35 -85 -55 -271
-172 -580 -477 -754 -741 -118 -179 -224 -383 -281 -540 -15 -41 -33 -88 -40
-105 -13 -29 -69 -234 -79 -285 -27 -143 -36 -192 -40 -230 -40 -336 -19 -702
56 -985 6 -22 11 -44 12 -50 48 -218 205 -568 361 -800 106 -158 193 -263 330
-400 147 -148 171 -169 315 -276 290 -215 642 -379 980 -455 19 -4 37 -8 40
-9 3 -1 25 -5 50 -10 25 -5 47 -9 50 -10 3 -1 32 -5 65 -9 33 -5 69 -10 80
-12 119 -23 548 -23 658 1 12 2 42 7 67 10 72 10 83 12 115 19 33 7 66 14 105
21 15 2 73 19 130 36 649 192 1184 600 1542 1174 50 81 188 345 188 361 0 3 6
20 14 37 14 32 56 144 61 162 1 6 5 17 8 25 34 83 91 346 112 520 14 119 21
412 11 495 -2 17 -7 57 -10 90 -8 77 -16 135 -20 160 -2 11 -9 47 -15 80 -6
33 -25 111 -41 174 -17 62 -30 115 -30 116 0 1 33 24 72 51 76 51 79 53 116
82 l23 17 -35 82 -35 82 35 21 c19 12 34 24 34 26 0 24 -133 299 -200 414 -92
159 -234 357 -340 475 -75 84 -115 125 -122 125 -4 0 -69 -43 -144 -96 -76
-53 -142 -98 -148 -100 -6 -2 -51 30 -101 71 -264 220 -563 386 -890 493 -84
28 -160 50 -195 57 -8 2 -49 10 -90 18 -102 21 -126 26 -190 33 -30 3 -57 8
-60 9 -3 2 -63 6 -135 10 -71 4 -133 9 -136 11 -3 2 -8 2 -10 0z"/>
</g>
</svg>
